<svg xmlns="http://www.w3.org/2000/svg" viewBox="0 0 32 32">
  <rect width="32" height="32" rx="7" fill="#dc143c" />
  <g transform="translate(5.6 8.2) scale(0.65)" fill="#ffffff">
    <path fill-rule="evenodd" clip-rule="evenodd" d="M29.6564 14.1534C29.5739 14.5616 29.3507 14.9288 29.0248 15.1926C28.699 15.4565 28.2907 15.6007 27.8694 15.6006H21.3702C20.5341 15.6006 19.8051 16.1627 19.6031 16.9638L18.1671 22.6368C18.0685 23.0263 17.8409 23.372 17.5205 23.619C17.2002 23.866 16.8054 24.0001 16.399 24H10.4378C10.1609 24.0001 9.88759 23.9378 9.63868 23.8179C9.38976 23.6979 9.1718 23.5235 9.00135 23.3079C8.8309 23.0923 8.71245 22.8412 8.65499 22.5736C8.59754 22.306 8.6026 22.029 8.66978 21.7636L10.1888 15.7636C10.2874 15.3743 10.5148 15.0287 10.835 14.7817C11.1551 14.5347 11.5496 14.4005 11.9559 14.4004H18.3931C19.2621 14.4004 20.0101 13.7949 20.1801 12.9532L22.3882 2.04774C22.4705 1.63945 22.6936 1.27198 23.0195 1.00793C23.3453 0.74388 23.7538 0.599578 24.1752 0.599605H30.1774C30.4471 0.599529 30.7134 0.658587 30.9572 0.772515C31.201 0.886444 31.4161 1.0524 31.5871 1.25842C31.758 1.46443 31.8806 1.70537 31.9458 1.96383C32.0111 2.2223 32.0175 2.49185 31.9645 2.75305L29.6564 14.1534ZM9.61081 13.5538C9.52825 13.962 9.30507 14.3292 8.97924 14.593C8.65341 14.857 8.24508 15.0011 7.82375 15.001H1.82257C1.55289 15.0011 1.28656 14.942 1.04279 14.8281C0.79902 14.7141 0.583892 14.5482 0.412928 14.3422C0.241965 14.1362 0.11943 13.8952 0.0541639 13.6368C-0.0111017 13.3783 -0.0174699 13.1087 0.0355186 12.8475L2.34359 1.44715C2.42614 1.03904 2.64933 0.671798 2.97516 0.407944C3.30099 0.144089 3.70932 -0.00007 4.13064 0H10.1318C10.4015 -0.00008 10.6678 0.0589818 10.9116 0.172911C11.1554 0.286839 11.3705 0.453799 11.5415 0.659813C11.7124 0.864828 11.835 1.10576 11.9002 1.36423C11.9655 1.62269 11.9719 1.89225 11.9189 2.15344L9.61081 13.5538Z" />
  </g>
</svg>
